<?xml version="1.0" encoding="utf-8"?>
<!-- Generator: Adobe Illustrator 27.0.1, SVG Export Plug-In . SVG Version: 6.00 Build 0)  -->
<svg version="1.1" id="Calque_1" xmlns="http://www.w3.org/2000/svg" xmlns:xlink="http://www.w3.org/1999/xlink" x="0px" y="0px"
	 viewBox="0 0 1585.2 178.5" style="enable-background:new 0 0 1585.2 178.5;" xml:space="preserve">
<g>
	<path d="M0,178.5V36.8h172.2v105H18.5v36.8H0z M18.5,123.3h135.2v-68H18.5V123.3z"/>
	<path d="M219.4,141.7v-105h172.2v105H219.4z M237.9,123.3h135.2v-68H237.9V123.3z"/>
	<path d="M438.9,141.7v-105h18.5v34l64.9-34h88.8v18.5l-85.3,0.2l-68.5,35.1v51.2H438.9z"/>
	<path d="M657.1,141.7v-18.5h153.7v-25H657.1V36.8h172.2v18.5H675.6v25h153.7v61.5H657.1z"/>
	<path d="M876.5,141.7v-105h172.2v18.5H895v67.8h153.7v18.7H876.5z"/>
	<path d="M1413,141.7v-105h172.2v61.5h-153.7v25h153.7v18.5H1413z M1431.5,80.2h135.2v-25h-135.2V80.2z"/>
	<rect x="1096" width="18.5" height="141.7"/>
	<rect x="1230.7" y="-79.5" transform="matrix(6.123234e-17 -1 1 6.123234e-17 1193.9856 1285.9661)" width="18.5" height="251"/>
	<rect x="1347.4" y="36.8" width="18.5" height="105"/>
</g>
<g>
</g>
<g>
</g>
<g>
</g>
<g>
</g>
<g>
</g>
<g>
</g>
<g>
</g>
<g>
</g>
<g>
</g>
<g>
</g>
<g>
</g>
<g>
</g>
<g>
</g>
<g>
</g>
<g>
</g>
</svg>
